<mxfile host="app.diagrams.net" agent="Mozilla/5.0 (Macintosh; Intel Mac OS X 10_15_7) AppleWebKit/537.36 (KHTML, like Gecko) Chrome/139.0.0.0 Safari/537.36" version="28.2.3" pages="5">
  <diagram name="Main Flow" id="eYyvpS9alsfb1KUlHo7p">
    <mxGraphModel dx="852" dy="-1572" grid="1" gridSize="10" guides="1" tooltips="1" connect="1" arrows="1" fold="1" page="1" pageScale="1" pageWidth="850" pageHeight="1100" math="0" shadow="0">
      <root>
        <mxCell id="0" />
        <mxCell id="1" parent="0" />
        <mxCell id="roKBIYEl2UJeyFb-VK_D-1" value="\" style="edgeStyle=orthogonalEdgeStyle;rounded=0;orthogonalLoop=1;jettySize=auto;html=1;exitX=0.5;exitY=1;exitDx=0;exitDy=0;entryX=0.5;entryY=0;entryDx=0;entryDy=0;" parent="1" source="roKBIYEl2UJeyFb-VK_D-21" target="roKBIYEl2UJeyFb-VK_D-6" edge="1">
          <mxGeometry relative="1" as="geometry" />
        </mxCell>
        <mxCell id="roKBIYEl2UJeyFb-VK_D-2" style="edgeStyle=orthogonalEdgeStyle;rounded=0;orthogonalLoop=1;jettySize=auto;html=1;exitX=0.5;exitY=1;exitDx=0;exitDy=0;entryX=0.5;entryY=0;entryDx=0;entryDy=0;" parent="1" source="roKBIYEl2UJeyFb-VK_D-3" target="roKBIYEl2UJeyFb-VK_D-21" edge="1">
          <mxGeometry relative="1" as="geometry" />
        </mxCell>
        <mxCell id="roKBIYEl2UJeyFb-VK_D-3" value="Start" style="ellipse;whiteSpace=wrap;html=1;aspect=fixed;" parent="1" vertex="1">
          <mxGeometry x="120" y="3180" width="40" height="40" as="geometry" />
        </mxCell>
        <mxCell id="roKBIYEl2UJeyFb-VK_D-4" value="End" style="ellipse;whiteSpace=wrap;html=1;aspect=fixed;" parent="1" vertex="1">
          <mxGeometry x="120" y="3820" width="40" height="40" as="geometry" />
        </mxCell>
        <mxCell id="roKBIYEl2UJeyFb-VK_D-5" style="edgeStyle=orthogonalEdgeStyle;rounded=0;orthogonalLoop=1;jettySize=auto;html=1;exitX=0.5;exitY=1;exitDx=0;exitDy=0;entryX=0.5;entryY=0;entryDx=0;entryDy=0;" parent="1" source="roKBIYEl2UJeyFb-VK_D-6" target="roKBIYEl2UJeyFb-VK_D-9" edge="1">
          <mxGeometry relative="1" as="geometry" />
        </mxCell>
        <mxCell id="roKBIYEl2UJeyFb-VK_D-6" value="User Logs in" style="rounded=1;whiteSpace=wrap;html=1;" parent="1" vertex="1">
          <mxGeometry x="80" y="3350" width="120" height="60" as="geometry" />
        </mxCell>
        <mxCell id="roKBIYEl2UJeyFb-VK_D-7" value="No" style="edgeStyle=orthogonalEdgeStyle;rounded=0;orthogonalLoop=1;jettySize=auto;html=1;exitX=1;exitY=0.5;exitDx=0;exitDy=0;entryX=0;entryY=0.5;entryDx=0;entryDy=0;" parent="1" source="roKBIYEl2UJeyFb-VK_D-9" target="roKBIYEl2UJeyFb-VK_D-12" edge="1">
          <mxGeometry relative="1" as="geometry" />
        </mxCell>
        <mxCell id="roKBIYEl2UJeyFb-VK_D-8" value="Yes" style="edgeStyle=orthogonalEdgeStyle;rounded=0;orthogonalLoop=1;jettySize=auto;html=1;exitX=0.5;exitY=1;exitDx=0;exitDy=0;entryX=0.5;entryY=0;entryDx=0;entryDy=0;" parent="1" source="roKBIYEl2UJeyFb-VK_D-9" target="roKBIYEl2UJeyFb-VK_D-14" edge="1">
          <mxGeometry relative="1" as="geometry" />
        </mxCell>
        <mxCell id="roKBIYEl2UJeyFb-VK_D-9" value="Succeed?" style="rhombus;whiteSpace=wrap;html=1;" parent="1" vertex="1">
          <mxGeometry x="100" y="3440" width="80" height="80" as="geometry" />
        </mxCell>
        <mxCell id="roKBIYEl2UJeyFb-VK_D-10" value="Yes" style="edgeStyle=orthogonalEdgeStyle;rounded=0;orthogonalLoop=1;jettySize=auto;html=1;exitX=1;exitY=0.5;exitDx=0;exitDy=0;entryX=0;entryY=0.5;entryDx=0;entryDy=0;" parent="1" source="roKBIYEl2UJeyFb-VK_D-12" target="roKBIYEl2UJeyFb-VK_D-16" edge="1">
          <mxGeometry relative="1" as="geometry" />
        </mxCell>
        <mxCell id="roKBIYEl2UJeyFb-VK_D-11" value="No" style="edgeStyle=orthogonalEdgeStyle;rounded=0;orthogonalLoop=1;jettySize=auto;html=1;exitX=0.5;exitY=0;exitDx=0;exitDy=0;" parent="1" source="roKBIYEl2UJeyFb-VK_D-12" edge="1">
          <mxGeometry relative="1" as="geometry">
            <mxPoint x="290" y="3380" as="targetPoint" />
          </mxGeometry>
        </mxCell>
        <mxCell id="roKBIYEl2UJeyFb-VK_D-12" value="Create User?" style="rhombus;whiteSpace=wrap;html=1;" parent="1" vertex="1">
          <mxGeometry x="250" y="3440" width="80" height="80" as="geometry" />
        </mxCell>
        <mxCell id="roKBIYEl2UJeyFb-VK_D-13" value="" style="edgeStyle=orthogonalEdgeStyle;rounded=0;orthogonalLoop=1;jettySize=auto;html=1;" parent="1" source="roKBIYEl2UJeyFb-VK_D-14" target="roKBIYEl2UJeyFb-VK_D-18" edge="1">
          <mxGeometry relative="1" as="geometry" />
        </mxCell>
        <mxCell id="roKBIYEl2UJeyFb-VK_D-14" value="Go to User home page" style="rounded=1;whiteSpace=wrap;html=1;" parent="1" vertex="1">
          <mxGeometry x="80" y="3550" width="120" height="60" as="geometry" />
        </mxCell>
        <mxCell id="roKBIYEl2UJeyFb-VK_D-15" style="edgeStyle=orthogonalEdgeStyle;rounded=0;orthogonalLoop=1;jettySize=auto;html=1;exitX=0.5;exitY=0;exitDx=0;exitDy=0;entryX=1;entryY=0.5;entryDx=0;entryDy=0;" parent="1" source="roKBIYEl2UJeyFb-VK_D-16" target="roKBIYEl2UJeyFb-VK_D-6" edge="1">
          <mxGeometry relative="1" as="geometry">
            <mxPoint x="290" y="3380" as="targetPoint" />
          </mxGeometry>
        </mxCell>
        <mxCell id="roKBIYEl2UJeyFb-VK_D-16" value="Create User" style="rounded=1;whiteSpace=wrap;html=1;shape=process;backgroundOutline=1;" parent="1" vertex="1">
          <mxGeometry x="390" y="3450" width="120" height="60" as="geometry" />
        </mxCell>
        <mxCell id="roKBIYEl2UJeyFb-VK_D-17" value="" style="edgeStyle=orthogonalEdgeStyle;rounded=0;orthogonalLoop=1;jettySize=auto;html=1;" parent="1" source="roKBIYEl2UJeyFb-VK_D-18" target="roKBIYEl2UJeyFb-VK_D-20" edge="1">
          <mxGeometry relative="1" as="geometry" />
        </mxCell>
        <mxCell id="roKBIYEl2UJeyFb-VK_D-18" value="Choose Activity" style="whiteSpace=wrap;html=1;rounded=1;" parent="1" vertex="1">
          <mxGeometry x="80" y="3640" width="120" height="60" as="geometry" />
        </mxCell>
        <mxCell id="roKBIYEl2UJeyFb-VK_D-19" style="edgeStyle=orthogonalEdgeStyle;rounded=0;orthogonalLoop=1;jettySize=auto;html=1;exitX=0.5;exitY=1;exitDx=0;exitDy=0;entryX=0.5;entryY=0;entryDx=0;entryDy=0;" parent="1" source="roKBIYEl2UJeyFb-VK_D-20" target="roKBIYEl2UJeyFb-VK_D-4" edge="1">
          <mxGeometry relative="1" as="geometry" />
        </mxCell>
        <mxCell id="roKBIYEl2UJeyFb-VK_D-20" value="Logout" style="whiteSpace=wrap;html=1;rounded=1;" parent="1" vertex="1">
          <mxGeometry x="80" y="3730" width="120" height="60" as="geometry" />
        </mxCell>
        <mxCell id="roKBIYEl2UJeyFb-VK_D-21" value="Captcha" style="rounded=1;whiteSpace=wrap;html=1;" parent="1" vertex="1">
          <mxGeometry x="80" y="3260" width="120" height="60" as="geometry" />
        </mxCell>
      </root>
    </mxGraphModel>
  </diagram>
  <diagram name="Game" id="maaBESz8zHEHL8ede_Hd">
    <mxGraphModel dx="997" dy="638" grid="1" gridSize="10" guides="1" tooltips="1" connect="1" arrows="1" fold="1" page="1" pageScale="1" pageWidth="850" pageHeight="1100" math="0" shadow="0">
      <root>
        <mxCell id="0" />
        <mxCell id="1" parent="0" />
        <mxCell id="DUrq_tXL7icfHCRuOtBh-1" value="" style="edgeStyle=orthogonalEdgeStyle;rounded=0;orthogonalLoop=1;jettySize=auto;html=1;" parent="1" source="DUrq_tXL7icfHCRuOtBh-2" target="DUrq_tXL7icfHCRuOtBh-3" edge="1">
          <mxGeometry relative="1" as="geometry" />
        </mxCell>
        <mxCell id="DUrq_tXL7icfHCRuOtBh-2" value="Game" style="ellipse;whiteSpace=wrap;html=1;aspect=fixed;" parent="1" vertex="1">
          <mxGeometry x="140" y="100" width="40" height="40" as="geometry" />
        </mxCell>
        <mxCell id="DUrq_tXL7icfHCRuOtBh-3" value="Mini game" style="shape=process;whiteSpace=wrap;html=1;backgroundOutline=1;" parent="1" vertex="1">
          <mxGeometry x="100" y="180" width="120" height="60" as="geometry" />
        </mxCell>
      </root>
    </mxGraphModel>
  </diagram>
  <diagram name="Create User" id="lDPMrc_-j2kcW37NQxYf">
    <mxGraphModel dx="997" dy="638" grid="1" gridSize="10" guides="1" tooltips="1" connect="1" arrows="1" fold="1" page="1" pageScale="1" pageWidth="850" pageHeight="1100" math="0" shadow="0">
      <root>
        <mxCell id="0" />
        <mxCell id="1" parent="0" />
        <mxCell id="-EVa_VFJcc5N0RKcG7ni-2" style="edgeStyle=orthogonalEdgeStyle;rounded=0;orthogonalLoop=1;jettySize=auto;html=1;exitX=0.5;exitY=1;exitDx=0;exitDy=0;entryX=0.5;entryY=0;entryDx=0;entryDy=0;" edge="1" parent="1" source="bLb63dWVyqMDFsnu1t4B-1" target="-EVa_VFJcc5N0RKcG7ni-1">
          <mxGeometry relative="1" as="geometry" />
        </mxCell>
        <mxCell id="bLb63dWVyqMDFsnu1t4B-1" value="Create User" style="ellipse;whiteSpace=wrap;html=1;aspect=fixed;" vertex="1" parent="1">
          <mxGeometry x="120" y="80" width="80" height="80" as="geometry" />
        </mxCell>
        <mxCell id="c2JxxAvYd308JT6zsOXU-2" style="edgeStyle=orthogonalEdgeStyle;rounded=0;orthogonalLoop=1;jettySize=auto;html=1;exitX=0.5;exitY=1;exitDx=0;exitDy=0;entryX=0.5;entryY=0;entryDx=0;entryDy=0;" edge="1" parent="1" source="-EVa_VFJcc5N0RKcG7ni-1" target="c2JxxAvYd308JT6zsOXU-1">
          <mxGeometry relative="1" as="geometry" />
        </mxCell>
        <mxCell id="-EVa_VFJcc5N0RKcG7ni-1" value="Get User Information" style="rounded=1;whiteSpace=wrap;html=1;" vertex="1" parent="1">
          <mxGeometry x="100" y="200" width="120" height="60" as="geometry" />
        </mxCell>
        <mxCell id="c2JxxAvYd308JT6zsOXU-5" value="Fail" style="edgeStyle=orthogonalEdgeStyle;rounded=0;orthogonalLoop=1;jettySize=auto;html=1;exitX=1;exitY=0.5;exitDx=0;exitDy=0;entryX=1;entryY=0.5;entryDx=0;entryDy=0;" edge="1" parent="1" source="c2JxxAvYd308JT6zsOXU-1" target="-EVa_VFJcc5N0RKcG7ni-1">
          <mxGeometry relative="1" as="geometry">
            <mxPoint x="280" y="230" as="targetPoint" />
            <Array as="points">
              <mxPoint x="280" y="320" />
              <mxPoint x="280" y="230" />
            </Array>
          </mxGeometry>
        </mxCell>
        <mxCell id="c2JxxAvYd308JT6zsOXU-8" style="edgeStyle=orthogonalEdgeStyle;rounded=0;orthogonalLoop=1;jettySize=auto;html=1;exitX=0.5;exitY=1;exitDx=0;exitDy=0;entryX=0.5;entryY=0;entryDx=0;entryDy=0;" edge="1" parent="1" source="c2JxxAvYd308JT6zsOXU-1" target="c2JxxAvYd308JT6zsOXU-7">
          <mxGeometry relative="1" as="geometry" />
        </mxCell>
        <mxCell id="c2JxxAvYd308JT6zsOXU-1" value="Validate&amp;nbsp;&lt;div&gt;User Info&lt;/div&gt;" style="rhombus;whiteSpace=wrap;html=1;" vertex="1" parent="1">
          <mxGeometry x="120" y="280" width="80" height="80" as="geometry" />
        </mxCell>
        <mxCell id="c2JxxAvYd308JT6zsOXU-12" style="edgeStyle=orthogonalEdgeStyle;rounded=0;orthogonalLoop=1;jettySize=auto;html=1;exitX=0.5;exitY=1;exitDx=0;exitDy=0;entryX=0.5;entryY=0;entryDx=0;entryDy=0;" edge="1" parent="1" source="c2JxxAvYd308JT6zsOXU-7" target="c2JxxAvYd308JT6zsOXU-10">
          <mxGeometry relative="1" as="geometry" />
        </mxCell>
        <mxCell id="c2JxxAvYd308JT6zsOXU-7" value="Write User Info to Database" style="shape=process;whiteSpace=wrap;html=1;backgroundOutline=1;" vertex="1" parent="1">
          <mxGeometry x="100" y="390" width="120" height="60" as="geometry" />
        </mxCell>
        <mxCell id="c2JxxAvYd308JT6zsOXU-13" style="edgeStyle=orthogonalEdgeStyle;rounded=0;orthogonalLoop=1;jettySize=auto;html=1;exitX=0.5;exitY=1;exitDx=0;exitDy=0;entryX=0.5;entryY=0;entryDx=0;entryDy=0;" edge="1" parent="1" source="c2JxxAvYd308JT6zsOXU-10" target="c2JxxAvYd308JT6zsOXU-11">
          <mxGeometry relative="1" as="geometry" />
        </mxCell>
        <mxCell id="c2JxxAvYd308JT6zsOXU-10" value="Return to Login Page" style="rounded=1;whiteSpace=wrap;html=1;" vertex="1" parent="1">
          <mxGeometry x="100" y="480" width="120" height="60" as="geometry" />
        </mxCell>
        <mxCell id="c2JxxAvYd308JT6zsOXU-11" value="Login" style="ellipse;whiteSpace=wrap;html=1;aspect=fixed;" vertex="1" parent="1">
          <mxGeometry x="120" y="580" width="80" height="80" as="geometry" />
        </mxCell>
      </root>
    </mxGraphModel>
  </diagram>
  <diagram name="User Post" id="sJgq4tOEnJnYABuXu0QS">
    <mxGraphModel dx="997" dy="638" grid="1" gridSize="10" guides="1" tooltips="1" connect="1" arrows="1" fold="1" page="1" pageScale="1" pageWidth="850" pageHeight="1100" math="0" shadow="0">
      <root>
        <mxCell id="0" />
        <mxCell id="1" parent="0" />
        <mxCell id="HnxcuP27qW4ehUv9MRb_-4" style="edgeStyle=orthogonalEdgeStyle;rounded=0;orthogonalLoop=1;jettySize=auto;html=1;exitX=0.5;exitY=1;exitDx=0;exitDy=0;entryX=0.5;entryY=0;entryDx=0;entryDy=0;" edge="1" parent="1" source="HnxcuP27qW4ehUv9MRb_-1" target="HnxcuP27qW4ehUv9MRb_-2">
          <mxGeometry relative="1" as="geometry" />
        </mxCell>
        <mxCell id="HnxcuP27qW4ehUv9MRb_-1" value="Start" style="ellipse;whiteSpace=wrap;html=1;aspect=fixed;" vertex="1" parent="1">
          <mxGeometry x="120" y="40" width="40" height="40" as="geometry" />
        </mxCell>
        <mxCell id="HnxcuP27qW4ehUv9MRb_-5" style="edgeStyle=orthogonalEdgeStyle;rounded=0;orthogonalLoop=1;jettySize=auto;html=1;exitX=0.5;exitY=1;exitDx=0;exitDy=0;entryX=0.5;entryY=0;entryDx=0;entryDy=0;" edge="1" parent="1" source="HnxcuP27qW4ehUv9MRb_-2" target="HnxcuP27qW4ehUv9MRb_-3">
          <mxGeometry relative="1" as="geometry" />
        </mxCell>
        <mxCell id="HnxcuP27qW4ehUv9MRb_-2" value="User Writes Post" style="rounded=1;whiteSpace=wrap;html=1;" vertex="1" parent="1">
          <mxGeometry x="80" y="110" width="120" height="60" as="geometry" />
        </mxCell>
        <mxCell id="HnxcuP27qW4ehUv9MRb_-8" value="Tails" style="edgeStyle=orthogonalEdgeStyle;rounded=0;orthogonalLoop=1;jettySize=auto;html=1;exitX=1;exitY=0.5;exitDx=0;exitDy=0;entryX=0.5;entryY=0;entryDx=0;entryDy=0;" edge="1" parent="1" source="HnxcuP27qW4ehUv9MRb_-3">
          <mxGeometry relative="1" as="geometry">
            <mxPoint x="320" y="330" as="targetPoint" />
          </mxGeometry>
        </mxCell>
        <mxCell id="HnxcuP27qW4ehUv9MRb_-9" value="Heads" style="edgeStyle=orthogonalEdgeStyle;rounded=0;orthogonalLoop=1;jettySize=auto;html=1;exitX=0.5;exitY=1;exitDx=0;exitDy=0;entryX=0.5;entryY=0;entryDx=0;entryDy=0;" edge="1" parent="1" source="HnxcuP27qW4ehUv9MRb_-3" target="HnxcuP27qW4ehUv9MRb_-6">
          <mxGeometry relative="1" as="geometry" />
        </mxCell>
        <mxCell id="HnxcuP27qW4ehUv9MRb_-3" value="Coin Flip" style="rhombus;whiteSpace=wrap;html=1;" vertex="1" parent="1">
          <mxGeometry x="100" y="200" width="80" height="80" as="geometry" />
        </mxCell>
        <mxCell id="HnxcuP27qW4ehUv9MRb_-14" style="edgeStyle=orthogonalEdgeStyle;rounded=0;orthogonalLoop=1;jettySize=auto;html=1;exitX=0.5;exitY=1;exitDx=0;exitDy=0;entryX=0.5;entryY=0;entryDx=0;entryDy=0;" edge="1" parent="1" source="HnxcuP27qW4ehUv9MRb_-6" target="HnxcuP27qW4ehUv9MRb_-12">
          <mxGeometry relative="1" as="geometry" />
        </mxCell>
        <mxCell id="HnxcuP27qW4ehUv9MRb_-6" value="Use Users Content" style="rounded=1;whiteSpace=wrap;html=1;" vertex="1" parent="1">
          <mxGeometry x="80" y="330" width="120" height="60" as="geometry" />
        </mxCell>
        <mxCell id="HnxcuP27qW4ehUv9MRb_-15" style="edgeStyle=orthogonalEdgeStyle;rounded=0;orthogonalLoop=1;jettySize=auto;html=1;exitX=0.5;exitY=1;exitDx=0;exitDy=0;entryX=1;entryY=0.5;entryDx=0;entryDy=0;" edge="1" parent="1" source="HnxcuP27qW4ehUv9MRb_-11" target="HnxcuP27qW4ehUv9MRb_-12">
          <mxGeometry relative="1" as="geometry" />
        </mxCell>
        <mxCell id="HnxcuP27qW4ehUv9MRb_-11" value="Ai Takes Post and makes its own" style="shape=process;whiteSpace=wrap;html=1;backgroundOutline=1;" vertex="1" parent="1">
          <mxGeometry x="260" y="330" width="120" height="60" as="geometry" />
        </mxCell>
        <mxCell id="HnxcuP27qW4ehUv9MRb_-18" style="edgeStyle=orthogonalEdgeStyle;rounded=0;orthogonalLoop=1;jettySize=auto;html=1;exitX=0.5;exitY=1;exitDx=0;exitDy=0;entryX=0.5;entryY=0;entryDx=0;entryDy=0;" edge="1" parent="1" source="HnxcuP27qW4ehUv9MRb_-12" target="HnxcuP27qW4ehUv9MRb_-16">
          <mxGeometry relative="1" as="geometry" />
        </mxCell>
        <mxCell id="HnxcuP27qW4ehUv9MRb_-12" value="Post added to Users Home Page" style="rounded=1;whiteSpace=wrap;html=1;" vertex="1" parent="1">
          <mxGeometry x="80" y="440" width="120" height="60" as="geometry" />
        </mxCell>
        <mxCell id="HnxcuP27qW4ehUv9MRb_-16" value="End" style="ellipse;whiteSpace=wrap;html=1;aspect=fixed;" vertex="1" parent="1">
          <mxGeometry x="120" y="560" width="40" height="40" as="geometry" />
        </mxCell>
      </root>
    </mxGraphModel>
  </diagram>
  <diagram id="4BrXGbncT4VY_hJn07X-" name="Copy Follows">
    <mxGraphModel dx="852" dy="628" grid="1" gridSize="10" guides="1" tooltips="1" connect="1" arrows="1" fold="1" page="1" pageScale="1" pageWidth="850" pageHeight="1100" math="0" shadow="0">
      <root>
        <mxCell id="0" />
        <mxCell id="1" parent="0" />
        <mxCell id="BBT70O-hJS0c3G4jPilb-1" style="edgeStyle=orthogonalEdgeStyle;rounded=0;orthogonalLoop=1;jettySize=auto;html=1;exitX=0.5;exitY=1;exitDx=0;exitDy=0;entryX=0.5;entryY=0;entryDx=0;entryDy=0;" edge="1" parent="1" source="BBT70O-hJS0c3G4jPilb-2" target="BBT70O-hJS0c3G4jPilb-4">
          <mxGeometry relative="1" as="geometry" />
        </mxCell>
        <mxCell id="BBT70O-hJS0c3G4jPilb-2" value="Start" style="ellipse;whiteSpace=wrap;html=1;aspect=fixed;" vertex="1" parent="1">
          <mxGeometry x="120" y="40" width="40" height="40" as="geometry" />
        </mxCell>
        <mxCell id="BBT70O-hJS0c3G4jPilb-3" style="edgeStyle=orthogonalEdgeStyle;rounded=0;orthogonalLoop=1;jettySize=auto;html=1;exitX=0.5;exitY=1;exitDx=0;exitDy=0;entryX=0.5;entryY=0;entryDx=0;entryDy=0;" edge="1" parent="1" source="BBT70O-hJS0c3G4jPilb-4" target="BBT70O-hJS0c3G4jPilb-5">
          <mxGeometry relative="1" as="geometry" />
        </mxCell>
        <mxCell id="BBT70O-hJS0c3G4jPilb-4" value="User taps copy follows button" style="rounded=1;whiteSpace=wrap;html=1;" vertex="1" parent="1">
          <mxGeometry x="80" y="110" width="120" height="60" as="geometry" />
        </mxCell>
        <mxCell id="BBT70O-hJS0c3G4jPilb-10" value="" style="edgeStyle=orthogonalEdgeStyle;rounded=0;orthogonalLoop=1;jettySize=auto;html=1;" edge="1" parent="1" source="BBT70O-hJS0c3G4jPilb-5" target="BBT70O-hJS0c3G4jPilb-9">
          <mxGeometry relative="1" as="geometry" />
        </mxCell>
        <mxCell id="BBT70O-hJS0c3G4jPilb-5" value="Confirm selection" style="rhombus;whiteSpace=wrap;html=1;" vertex="1" parent="1">
          <mxGeometry x="100" y="200" width="80" height="80" as="geometry" />
        </mxCell>
        <mxCell id="BBT70O-hJS0c3G4jPilb-12" style="edgeStyle=orthogonalEdgeStyle;rounded=0;orthogonalLoop=1;jettySize=auto;html=1;entryX=0.5;entryY=0;entryDx=0;entryDy=0;" edge="1" parent="1" source="BBT70O-hJS0c3G4jPilb-9" target="BBT70O-hJS0c3G4jPilb-11">
          <mxGeometry relative="1" as="geometry" />
        </mxCell>
        <mxCell id="BBT70O-hJS0c3G4jPilb-9" value="Perform action" style="whiteSpace=wrap;html=1;" vertex="1" parent="1">
          <mxGeometry x="80" y="320" width="120" height="60" as="geometry" />
        </mxCell>
        <mxCell id="BBT70O-hJS0c3G4jPilb-11" value="End" style="ellipse;whiteSpace=wrap;html=1;aspect=fixed;" vertex="1" parent="1">
          <mxGeometry x="120" y="420" width="40" height="40" as="geometry" />
        </mxCell>
        <mxCell id="BBT70O-hJS0c3G4jPilb-14" value="" style="endArrow=none;html=1;rounded=0;exitX=1;exitY=0.5;exitDx=0;exitDy=0;" edge="1" parent="1" source="BBT70O-hJS0c3G4jPilb-5">
          <mxGeometry width="50" height="50" relative="1" as="geometry">
            <mxPoint x="400" y="310" as="sourcePoint" />
            <mxPoint x="240" y="240" as="targetPoint" />
          </mxGeometry>
        </mxCell>
        <mxCell id="BBT70O-hJS0c3G4jPilb-16" value="" style="endArrow=none;html=1;rounded=0;" edge="1" parent="1">
          <mxGeometry width="50" height="50" relative="1" as="geometry">
            <mxPoint x="240" y="240" as="sourcePoint" />
            <mxPoint x="240" y="440" as="targetPoint" />
          </mxGeometry>
        </mxCell>
        <mxCell id="BBT70O-hJS0c3G4jPilb-17" value="" style="endArrow=classic;html=1;rounded=0;entryX=1;entryY=0.5;entryDx=0;entryDy=0;" edge="1" parent="1" target="BBT70O-hJS0c3G4jPilb-11">
          <mxGeometry width="50" height="50" relative="1" as="geometry">
            <mxPoint x="240" y="440" as="sourcePoint" />
            <mxPoint x="450" y="260" as="targetPoint" />
          </mxGeometry>
        </mxCell>
        <mxCell id="BBT70O-hJS0c3G4jPilb-18" value="Yes" style="text;html=1;align=center;verticalAlign=middle;resizable=0;points=[];autosize=1;strokeColor=none;fillColor=none;" vertex="1" parent="1">
          <mxGeometry x="140" y="280" width="40" height="30" as="geometry" />
        </mxCell>
        <mxCell id="BBT70O-hJS0c3G4jPilb-19" value="No" style="text;html=1;align=center;verticalAlign=middle;resizable=0;points=[];autosize=1;strokeColor=none;fillColor=none;" vertex="1" parent="1">
          <mxGeometry x="170" y="208" width="40" height="30" as="geometry" />
        </mxCell>
      </root>
    </mxGraphModel>
  </diagram>
</mxfile>
